<svg id="Layer_1" data-name="Layer 1" xmlns="http://www.w3.org/2000/svg" xmlns:xlink="http://www.w3.org/1999/xlink" viewBox="0 0 24 24"><defs><style>.cls-1{fill:url(#linear-gradient);}.cls-2{fill:url(#linear-gradient-2);}.cls-3{fill:#fff;}.cls-4{opacity:0.5;}.cls-5{fill:url(#linear-gradient-3);}.cls-6{fill:url(#linear-gradient-4);}.cls-7{fill:#3d3d3d;}.cls-8{fill:none;stroke:#fff;}</style><linearGradient id="linear-gradient" x1="10" y1="20" x2="10" gradientUnits="userSpaceOnUse"><stop offset="0.11" stop-color="#3a6835"/><stop offset="0.99" stop-color="#74a95b"/></linearGradient><linearGradient id="linear-gradient-2" x1="-23.99" y1="-44.24" x2="-23.99" y2="-23.16" gradientTransform="translate(30.86 39.3) scale(0.87)" gradientUnits="userSpaceOnUse"><stop offset="0.07" stop-color="#f4fae6"/><stop offset="0.6" stop-color="#b7e060"/><stop offset="1" stop-color="#75bb4b"/></linearGradient><linearGradient id="linear-gradient-3" x1="11.32" y1="6.99" x2="10.28" y2="14.49" gradientUnits="userSpaceOnUse"><stop offset="0.11" stop-color="#1a1a1a"/><stop offset="1" stop-color="#67676a"/></linearGradient><linearGradient id="linear-gradient-4" x1="18.5" y1="23.5" x2="18.5" y2="13.5" gradientUnits="userSpaceOnUse"><stop offset="0.06" stop-color="#333"/><stop offset="0.5" stop-color="#646464"/><stop offset="0.96" stop-color="#828282"/></linearGradient></defs><path class="cls-1" d="M10,.91A9.09,9.09,0,1,1,.91,10,9.1,9.1,0,0,1,10,.91M10,0A10,10,0,1,0,20,10,10,10,0,0,0,10,0Z"/><path class="cls-2" d="M10,19.17A9.17,9.17,0,1,1,19.17,10,9.19,9.19,0,0,1,10,19.17Z"/><path class="cls-3" d="M10,1.89a8.93,8.93,0,0,1,8.9,8.47c0-.15,0-.29,0-.44a8.92,8.92,0,0,0-17.84,0c0,.15,0,.29,0,.44A8.93,8.93,0,0,1,10,1.89Z"/><g class="cls-4"><path class="cls-3" d="M7.5,5.83v10l7.5-5Z"/></g><path class="cls-5" d="M7.5,5V15L15,10Z"/><circle class="cls-6" cx="18.5" cy="18.5" r="5"/><path class="cls-7" d="M18.5,14A4.5,4.5,0,1,1,14,18.5,4.51,4.51,0,0,1,18.5,14m0-1A5.5,5.5,0,1,0,24,18.5,5.5,5.5,0,0,0,18.5,13Z"/><polyline class="cls-8" points="18.5 14.48 18.5 18.92 21.5 20.5"/></svg>