<?xml version="1.0" encoding="UTF-8" standalone="no"?>
<svg
   xmlns:dc="http://purl.org/dc/elements/1.1/"
   xmlns:cc="http://creativecommons.org/ns#"
   xmlns:rdf="http://www.w3.org/1999/02/22-rdf-syntax-ns#"
   xmlns:svg="http://www.w3.org/2000/svg"
   xmlns="http://www.w3.org/2000/svg"
   xmlns:sodipodi="http://sodipodi.sourceforge.net/DTD/sodipodi-0.dtd"
   xmlns:inkscape="http://www.inkscape.org/namespaces/inkscape"
   inkscape:version="1.0 (4035a4fb49, 2020-05-01)"
   sodipodi:docname="text.svg"
   id="svg65"
   version="1.1"
   height="907"
   width="984"
   style="fill-opacity:1; color-rendering:auto; color-interpolation:auto; text-rendering:auto; stroke:black; stroke-linecap:square; stroke-miterlimit:10; shape-rendering:auto; stroke-opacity:1; fill:black; stroke-dasharray:none; font-weight:normal; stroke-width:1; font-family:'Dialog'; font-style:normal; stroke-linejoin:miter; font-size:12px; stroke-dashoffset:0; image-rendering:auto;">
  <metadata
     id="metadata69">
    <rdf:RDF>
      <cc:Work
         rdf:about="">
        <dc:format>image/svg+xml</dc:format>
        <dc:type
           rdf:resource="http://purl.org/dc/dcmitype/StillImage" />
        <dc:title></dc:title>
      </cc:Work>
    </rdf:RDF>
  </metadata>
  <sodipodi:namedview
     inkscape:current-layer="g63"
     inkscape:window-maximized="0"
     inkscape:window-y="0"
     inkscape:window-x="0"
     inkscape:cy="453.5"
     inkscape:cx="492"
     inkscape:zoom="0.83020948"
     showgrid="false"
     id="namedview67"
     inkscape:window-height="1155"
     inkscape:window-width="2060"
     inkscape:pageshadow="2"
     inkscape:pageopacity="0"
     guidetolerance="10"
     gridtolerance="10"
     objecttolerance="10"
     borderopacity="1"
     bordercolor="#666666"
     pagecolor="#ffffff" />
  <!--Generated by the Batik Graphics2D SVG Generator-->
  <defs
     id="genericDefs" />
  <g
     id="g63">
    <defs
       id="defs1">
      <clipPath
         id="clipPath1"
         clipPathUnits="userSpaceOnUse">
        <path
           id="path3"
           d="M0 0 L984 0 L984 907 L0 907 L0 0 Z" />
      </clipPath>
    </defs>
    <g
       id="g13"
       style="fill:white; text-rendering:optimizeSpeed; color-rendering:optimizeSpeed; image-rendering:optimizeSpeed; shape-rendering:crispEdges; stroke:white; color-interpolation:sRGB;" />
    <g
       id="g25"
       style="font-size:26.6667px; text-rendering:geometricPrecision; color-rendering:optimizeQuality; image-rendering:optimizeQuality; font-family:'mwa_cmmi10'; color-interpolation:linearRGB;"
       transform="translate(128,807)">
      <path
         id="path15"
         d="M-15.5922 -9.6782 Q-15.811 -9.6782 -15.9438 -9.8345 Q-16.0766 -9.9907 -16.0766 -10.2095 Q-16.0766 -10.4126 -15.9438 -10.5767 Q-15.811 -10.7407 -15.5922 -10.7407 L-6.0297 -10.7407 Q-6.7485 -11.6938 -6.7485 -12.3345 Q-6.7485 -12.5688 -6.5844 -12.7251 Q-6.4203 -12.8813 -6.2016 -12.8813 Q-5.7641 -12.8813 -5.6703 -12.4595 Q-5.4047 -11.2876 -4.3891 -10.6626 Q-4.1235 -10.4907 -4.1235 -10.2095 Q-4.1235 -9.8813 -4.3891 -9.7563 Q-5.9203 -8.9907 -6.8578 -7.7251 Q-6.9516 -7.5376 -7.2641 -7.5376 Q-7.4516 -7.5376 -7.6235 -7.6938 Q-7.7953 -7.8501 -7.7953 -8.0688 Q-7.7953 -8.5688 -6.4985 -9.6782 L-15.5922 -9.6782 Z"
         style="stroke:none;" />
      <path
         id="path17"
         d="M-17.0723 3.353 Q-17.0723 2.7437 -16.9317 2.0171 Q-16.7911 1.2905 -16.6427 0.8296 Q-16.4942 0.3687 -15.9786 -0.9907 Q-15.463 -2.3501 -15.4473 -2.4126 Q-15.1036 -3.397 -15.1036 -4.022 Q-15.1036 -4.8345 -15.6973 -4.8345 Q-16.7598 -4.8345 -17.4552 -3.7329 Q-18.1505 -2.6313 -18.4786 -1.272 Q-18.5255 -1.1001 -18.6973 -1.1001 L-19.0098 -1.1001 Q-19.2442 -1.1001 -19.2442 -1.3501 L-19.2442 -1.4282 Q-18.8067 -3.0376 -17.9083 -4.2876 Q-17.0098 -5.5376 -15.6348 -5.5376 Q-14.6817 -5.5376 -14.0098 -4.9048 Q-13.338 -4.272 -13.338 -3.2876 Q-13.338 -2.7876 -13.5723 -2.2407 Q-14.1036 -0.8657 -14.4005 -0.0376 Q-14.6973 0.7905 -14.9552 1.8062 Q-15.213 2.8218 -15.213 3.6968 Q-15.213 4.7124 -14.7442 5.353 Q-14.2755 5.9937 -13.2911 5.9937 Q-11.4161 5.9937 -9.9161 3.103 Q-9.4473 2.1655 -9.0255 0.8999 Q-8.6036 -0.3657 -8.6036 -1.147 Q-8.6036 -1.9751 -8.8614 -2.4282 Q-9.1192 -2.8813 -9.5411 -3.3735 Q-9.963 -3.8657 -9.963 -4.1626 Q-9.963 -4.6938 -9.5333 -5.1235 Q-9.1036 -5.5532 -8.5723 -5.5532 Q-7.9317 -5.5532 -7.6427 -4.9595 Q-7.3536 -4.3657 -7.3536 -3.6157 Q-7.3536 -2.7251 -7.6114 -1.4829 Q-7.8692 -0.2407 -8.3223 1.0874 Q-8.7755 2.4155 -9.1661 3.1812 Q-10.9473 6.6968 -13.3223 6.6968 Q-15.0255 6.6968 -16.0489 5.853 Q-17.0723 5.0093 -17.0723 3.353 Z"
         style="stroke:none;" />
      <path
         id="path19"
         d="M-5.2714 10.3999 L-5.2714 9.728 Q-2.8964 9.728 -2.8964 9.1342 L-2.8964 -0.8501 Q-3.8808 -0.3658 -5.3808 -0.3658 L-5.3808 -1.0376 Q-3.0527 -1.0376 -1.8652 -2.2564 L-1.5995 -2.2564 Q-1.537 -2.2564 -1.4745 -2.2017 Q-1.412 -2.147 -1.412 -2.0845 L-1.412 9.1342 Q-1.412 9.728 0.963 9.728 L0.963 10.3999 L-5.2714 10.3999 Z"
         style="stroke:none;" />
      <path
         id="path21"
         d="M4.1869 13.8217 Q4.1869 13.7436 4.2494 13.6655 Q4.9369 13.0092 5.3197 12.142 Q5.7026 11.2749 5.7026 10.3217 L5.7026 10.0874 Q5.3901 10.3999 4.9369 10.3999 Q4.4994 10.3999 4.1947 10.0952 Q3.8901 9.7905 3.8901 9.353 Q3.8901 8.8999 4.1947 8.603 Q4.4994 8.3061 4.9369 8.3061 Q5.6244 8.3061 5.9057 8.9389 Q6.1869 9.5717 6.1869 10.3217 Q6.1869 11.3842 5.7651 12.3374 Q5.3432 13.2905 4.5776 14.0405 Q4.4994 14.0874 4.4526 14.0874 Q4.3588 14.0874 4.2729 14.0014 Q4.1869 13.9155 4.1869 13.8217 Z"
         style="stroke:none;" />
      <path
         id="path23"
         d="M9.3252 13.5405 Q9.6846 13.8061 10.1846 13.8061 Q10.8565 13.8061 11.2784 12.3061 Q11.4659 11.5717 12.2471 7.5405 L13.1221 2.8686 L11.4971 2.8686 Q11.3096 2.8686 11.3096 2.6186 Q11.3721 2.2124 11.544 2.2124 L13.2471 2.2124 L13.4659 0.978 Q13.5752 0.3999 13.669 -0.0142 Q13.7627 -0.4283 13.8721 -0.7798 Q13.9815 -1.1314 14.1846 -1.5689 Q14.5127 -2.1939 15.0674 -2.5923 Q15.6221 -2.9908 16.2627 -2.9908 Q16.669 -2.9908 17.0674 -2.8423 Q17.4659 -2.6939 17.7159 -2.3892 Q17.9659 -2.0845 17.9659 -1.6626 Q17.9659 -1.1783 17.6455 -0.8189 Q17.3252 -0.4595 16.8721 -0.4595 Q16.5596 -0.4595 16.3409 -0.6548 Q16.1221 -0.8501 16.1221 -1.147 Q16.1221 -1.5689 16.4112 -1.8814 Q16.7002 -2.1939 17.1065 -2.2408 Q16.7627 -2.5064 16.2471 -2.5064 Q15.9502 -2.5064 15.6924 -2.233 Q15.4346 -1.9595 15.3721 -1.6626 Q15.2471 -1.1783 14.8409 0.9624 L14.6065 2.2124 L16.5596 2.2124 Q16.7471 2.2124 16.7471 2.4624 Q16.7471 2.5092 16.7159 2.6264 Q16.6846 2.7436 16.6299 2.8061 Q16.5752 2.8686 16.5127 2.8686 L14.4815 2.8686 L13.5909 7.5092 Q13.4346 8.5249 13.2159 9.5717 Q12.9971 10.6186 12.5987 11.7124 Q12.2002 12.8061 11.5909 13.5483 Q10.9815 14.2905 10.1377 14.2905 Q9.4971 14.2905 8.9971 13.9233 Q8.4971 13.5561 8.4971 12.9624 Q8.4971 12.478 8.8096 12.1186 Q9.1221 11.7592 9.5909 11.7592 Q9.9034 11.7592 10.1143 11.9545 Q10.3252 12.1499 10.3252 12.4467 Q10.3252 12.853 10.0284 13.1967 Q9.7315 13.5405 9.3252 13.5405 Z"
         style="stroke:none;" />
    </g>
    <g
       id="g37"
       style="font-size:26.6667px; text-rendering:geometricPrecision; color-rendering:optimizeQuality; image-rendering:optimizeQuality; font-family:'mwa_cmmi10'; color-interpolation:linearRGB;"
       transform="translate(509.5,807)">
      <path
         id="path27"
         d="M-15.5922 -9.6782 Q-15.811 -9.6782 -15.9438 -9.8345 Q-16.0766 -9.9907 -16.0766 -10.2095 Q-16.0766 -10.4126 -15.9438 -10.5767 Q-15.811 -10.7407 -15.5922 -10.7407 L-6.0297 -10.7407 Q-6.7485 -11.6938 -6.7485 -12.3345 Q-6.7485 -12.5688 -6.5844 -12.7251 Q-6.4203 -12.8813 -6.2016 -12.8813 Q-5.7641 -12.8813 -5.6703 -12.4595 Q-5.4047 -11.2876 -4.3891 -10.6626 Q-4.1235 -10.4907 -4.1235 -10.2095 Q-4.1235 -9.8813 -4.3891 -9.7563 Q-5.9203 -8.9907 -6.8578 -7.7251 Q-6.9516 -7.5376 -7.2641 -7.5376 Q-7.4516 -7.5376 -7.6235 -7.6938 Q-7.7953 -7.8501 -7.7953 -8.0688 Q-7.7953 -8.5688 -6.4985 -9.6782 L-15.5922 -9.6782 Z"
         style="stroke:none;" />
      <path
         id="path29"
         d="M-17.0723 3.353 Q-17.0723 2.7437 -16.9317 2.0171 Q-16.7911 1.2905 -16.6427 0.8296 Q-16.4942 0.3687 -15.9786 -0.9907 Q-15.463 -2.3501 -15.4473 -2.4126 Q-15.1036 -3.397 -15.1036 -4.022 Q-15.1036 -4.8345 -15.6973 -4.8345 Q-16.7598 -4.8345 -17.4552 -3.7329 Q-18.1505 -2.6313 -18.4786 -1.272 Q-18.5255 -1.1001 -18.6973 -1.1001 L-19.0098 -1.1001 Q-19.2442 -1.1001 -19.2442 -1.3501 L-19.2442 -1.4282 Q-18.8067 -3.0376 -17.9083 -4.2876 Q-17.0098 -5.5376 -15.6348 -5.5376 Q-14.6817 -5.5376 -14.0098 -4.9048 Q-13.338 -4.272 -13.338 -3.2876 Q-13.338 -2.7876 -13.5723 -2.2407 Q-14.1036 -0.8657 -14.4005 -0.0376 Q-14.6973 0.7905 -14.9552 1.8062 Q-15.213 2.8218 -15.213 3.6968 Q-15.213 4.7124 -14.7442 5.353 Q-14.2755 5.9937 -13.2911 5.9937 Q-11.4161 5.9937 -9.9161 3.103 Q-9.4473 2.1655 -9.0255 0.8999 Q-8.6036 -0.3657 -8.6036 -1.147 Q-8.6036 -1.9751 -8.8614 -2.4282 Q-9.1192 -2.8813 -9.5411 -3.3735 Q-9.963 -3.8657 -9.963 -4.1626 Q-9.963 -4.6938 -9.5333 -5.1235 Q-9.1036 -5.5532 -8.5723 -5.5532 Q-7.9317 -5.5532 -7.6427 -4.9595 Q-7.3536 -4.3657 -7.3536 -3.6157 Q-7.3536 -2.7251 -7.6114 -1.4829 Q-7.8692 -0.2407 -8.3223 1.0874 Q-8.7755 2.4155 -9.1661 3.1812 Q-10.9473 6.6968 -13.3223 6.6968 Q-15.0255 6.6968 -16.0489 5.853 Q-17.0723 5.0093 -17.0723 3.353 Z"
         style="stroke:none;" />
      <path
         id="path31"
         d="M-6.0839 10.3999 L-6.0839 9.8842 Q-6.0839 9.8374 -6.0527 9.7905 L-3.0995 6.5249 Q-2.4277 5.7905 -2.0136 5.3061 Q-1.5995 4.8217 -1.1933 4.1811 Q-0.787 3.5405 -0.5527 2.8764 Q-0.3183 2.2124 -0.3183 1.4624 Q-0.3183 0.6811 -0.5995 -0.0298 Q-0.8808 -0.7408 -1.4511 -1.1626 Q-2.0214 -1.5845 -2.8339 -1.5845 Q-3.662 -1.5845 -4.3183 -1.0923 Q-4.9745 -0.6001 -5.2402 0.1967 Q-5.1777 0.1811 -5.037 0.1811 Q-4.6152 0.1811 -4.3105 0.4624 Q-4.0058 0.7436 -4.0058 1.2124 Q-4.0058 1.6342 -4.3105 1.9389 Q-4.6152 2.2436 -5.037 2.2436 Q-5.4902 2.2436 -5.787 1.9311 Q-6.0839 1.6186 -6.0839 1.2124 Q-6.0839 0.4936 -5.8183 -0.1314 Q-5.5527 -0.7564 -5.0448 -1.2486 Q-4.537 -1.7408 -3.9042 -1.9986 Q-3.2714 -2.2564 -2.5527 -2.2564 Q-1.4745 -2.2564 -0.537 -1.7955 Q0.4005 -1.3345 0.9473 -0.4986 Q1.4942 0.3374 1.4942 1.4624 Q1.4942 2.2905 1.1348 3.0327 Q0.7755 3.7749 0.213 4.3842 Q-0.3495 4.9936 -1.2323 5.7592 Q-2.1152 6.5249 -2.3964 6.7905 L-4.5527 8.853 L-2.7245 8.853 Q-1.3808 8.853 -0.4745 8.8295 Q0.4317 8.8061 0.4942 8.7592 Q0.713 8.5249 0.9473 7.0092 L1.4942 7.0092 L0.963 10.3999 L-6.0839 10.3999 Z"
         style="stroke:none;" />
      <path
         id="path33"
         d="M4.1869 13.8217 Q4.1869 13.7436 4.2494 13.6655 Q4.9369 13.0092 5.3197 12.142 Q5.7026 11.2749 5.7026 10.3217 L5.7026 10.0874 Q5.3901 10.3999 4.9369 10.3999 Q4.4994 10.3999 4.1947 10.0952 Q3.8901 9.7905 3.8901 9.353 Q3.8901 8.8999 4.1947 8.603 Q4.4994 8.3061 4.9369 8.3061 Q5.6244 8.3061 5.9057 8.9389 Q6.1869 9.5717 6.1869 10.3217 Q6.1869 11.3842 5.7651 12.3374 Q5.3432 13.2905 4.5776 14.0405 Q4.4994 14.0874 4.4526 14.0874 Q4.3588 14.0874 4.2729 14.0014 Q4.1869 13.9155 4.1869 13.8217 Z"
         style="stroke:none;" />
      <path
         id="path35"
         d="M9.3252 13.5405 Q9.6846 13.8061 10.1846 13.8061 Q10.8565 13.8061 11.2784 12.3061 Q11.4659 11.5717 12.2471 7.5405 L13.1221 2.8686 L11.4971 2.8686 Q11.3096 2.8686 11.3096 2.6186 Q11.3721 2.2124 11.544 2.2124 L13.2471 2.2124 L13.4659 0.978 Q13.5752 0.3999 13.669 -0.0142 Q13.7627 -0.4283 13.8721 -0.7798 Q13.9815 -1.1314 14.1846 -1.5689 Q14.5127 -2.1939 15.0674 -2.5923 Q15.6221 -2.9908 16.2627 -2.9908 Q16.669 -2.9908 17.0674 -2.8423 Q17.4659 -2.6939 17.7159 -2.3892 Q17.9659 -2.0845 17.9659 -1.6626 Q17.9659 -1.1783 17.6455 -0.8189 Q17.3252 -0.4595 16.8721 -0.4595 Q16.5596 -0.4595 16.3409 -0.6548 Q16.1221 -0.8501 16.1221 -1.147 Q16.1221 -1.5689 16.4112 -1.8814 Q16.7002 -2.1939 17.1065 -2.2408 Q16.7627 -2.5064 16.2471 -2.5064 Q15.9502 -2.5064 15.6924 -2.233 Q15.4346 -1.9595 15.3721 -1.6626 Q15.2471 -1.1783 14.8409 0.9624 L14.6065 2.2124 L16.5596 2.2124 Q16.7471 2.2124 16.7471 2.4624 Q16.7471 2.5092 16.7159 2.6264 Q16.6846 2.7436 16.6299 2.8061 Q16.5752 2.8686 16.5127 2.8686 L14.4815 2.8686 L13.5909 7.5092 Q13.4346 8.5249 13.2159 9.5717 Q12.9971 10.6186 12.5987 11.7124 Q12.2002 12.8061 11.5909 13.5483 Q10.9815 14.2905 10.1377 14.2905 Q9.4971 14.2905 8.9971 13.9233 Q8.4971 13.5561 8.4971 12.9624 Q8.4971 12.478 8.8096 12.1186 Q9.1221 11.7592 9.5909 11.7592 Q9.9034 11.7592 10.1143 11.9545 Q10.3252 12.1499 10.3252 12.4467 Q10.3252 12.853 10.0284 13.1967 Q9.7315 13.5405 9.3252 13.5405 Z"
         style="stroke:none;" />
    </g>
    <g
       id="g49"
       style="font-size:26.6667px; text-rendering:geometricPrecision; color-rendering:optimizeQuality; image-rendering:optimizeQuality; font-family:'mwa_cmmi10'; color-interpolation:linearRGB;"
       transform="translate(128,437.5)">
      <path
         id="path39"
         d="M-13.2336 -9.6782 Q-13.4523 -9.6782 -13.5851 -9.8345 Q-13.7179 -9.9907 -13.7179 -10.2095 Q-13.7179 -10.4126 -13.5851 -10.5767 Q-13.4523 -10.7407 -13.2336 -10.7407 L-3.6711 -10.7407 Q-4.3898 -11.6938 -4.3898 -12.3345 Q-4.3898 -12.5688 -4.2257 -12.7251 Q-4.0617 -12.8813 -3.8429 -12.8813 Q-3.4054 -12.8813 -3.3117 -12.4595 Q-3.0461 -11.2876 -2.0304 -10.6626 Q-1.7648 -10.4907 -1.7648 -10.2095 Q-1.7648 -9.8813 -2.0304 -9.7563 Q-3.5617 -8.9907 -4.4992 -7.7251 Q-4.5929 -7.5376 -4.9054 -7.5376 Q-5.0929 -7.5376 -5.2648 -7.6938 Q-5.4367 -7.8501 -5.4367 -8.0688 Q-5.4367 -8.5688 -4.1398 -9.6782 L-13.2336 -9.6782 Z"
         style="stroke:none;" />
      <path
         id="path41"
         d="M-14.7137 3.353 Q-14.7137 2.7437 -14.5731 2.0171 Q-14.4325 1.2905 -14.284 0.8296 Q-14.1356 0.3687 -13.62 -0.9907 Q-13.1043 -2.3501 -13.0887 -2.4126 Q-12.745 -3.397 -12.745 -4.022 Q-12.745 -4.8345 -13.3387 -4.8345 Q-14.4012 -4.8345 -15.0965 -3.7329 Q-15.7918 -2.6313 -16.12 -1.272 Q-16.1668 -1.1001 -16.3387 -1.1001 L-16.6512 -1.1001 Q-16.8856 -1.1001 -16.8856 -1.3501 L-16.8856 -1.4282 Q-16.4481 -3.0376 -15.5496 -4.2876 Q-14.6512 -5.5376 -13.2762 -5.5376 Q-12.3231 -5.5376 -11.6512 -4.9048 Q-10.9793 -4.272 -10.9793 -3.2876 Q-10.9793 -2.7876 -11.2137 -2.2407 Q-11.745 -0.8657 -12.0418 -0.0376 Q-12.3387 0.7905 -12.5965 1.8062 Q-12.8543 2.8218 -12.8543 3.6968 Q-12.8543 4.7124 -12.3856 5.353 Q-11.9168 5.9937 -10.9325 5.9937 Q-9.0575 5.9937 -7.5575 3.103 Q-7.0887 2.1655 -6.6668 0.8999 Q-6.245 -0.3657 -6.245 -1.147 Q-6.245 -1.9751 -6.5028 -2.4282 Q-6.7606 -2.8813 -7.1825 -3.3735 Q-7.6043 -3.8657 -7.6043 -4.1626 Q-7.6043 -4.6938 -7.1746 -5.1235 Q-6.745 -5.5532 -6.2137 -5.5532 Q-5.5731 -5.5532 -5.284 -4.9595 Q-4.995 -4.3657 -4.995 -3.6157 Q-4.995 -2.7251 -5.2528 -1.4829 Q-5.5106 -0.2407 -5.9637 1.0874 Q-6.4168 2.4155 -6.8075 3.1812 Q-8.5887 6.6968 -10.9637 6.6968 Q-12.6668 6.6968 -13.6903 5.853 Q-14.7137 5.0093 -14.7137 3.353 Z"
         style="stroke:none;" />
      <path
         id="path43"
         d="M-2.9128 10.3999 L-2.9128 9.728 Q-0.5378 9.728 -0.5378 9.1342 L-0.5378 -0.8501 Q-1.5221 -0.3658 -3.0221 -0.3658 L-3.0221 -1.0376 Q-0.694 -1.0376 0.4935 -2.2564 L0.7591 -2.2564 Q0.8216 -2.2564 0.8841 -2.2017 Q0.9466 -2.147 0.9466 -2.0845 L0.9466 9.1342 Q0.9466 9.728 3.3216 9.728 L3.3216 10.3999 L-2.9128 10.3999 Z"
         style="stroke:none;" />
      <path
         id="path45"
         d="M6.5456 13.8217 Q6.5456 13.7436 6.6081 13.6655 Q7.2956 13.0092 7.6784 12.142 Q8.0612 11.2749 8.0612 10.3217 L8.0612 10.0874 Q7.7487 10.3999 7.2956 10.3999 Q6.8581 10.3999 6.5534 10.0952 Q6.2487 9.7905 6.2487 9.353 Q6.2487 8.8999 6.5534 8.603 Q6.8581 8.3061 7.2956 8.3061 Q7.9831 8.3061 8.2643 8.9389 Q8.5456 9.5717 8.5456 10.3217 Q8.5456 11.3842 8.1237 12.3374 Q7.7018 13.2905 6.9362 14.0405 Q6.8581 14.0874 6.8112 14.0874 Q6.7174 14.0874 6.6315 14.0014 Q6.5456 13.9155 6.5456 13.8217 Z"
         style="stroke:none;" />
      <path
         id="path47"
         d="M11.3245 9.0405 Q11.3245 8.6811 11.4808 8.2905 L13.012 4.1967 Q13.262 3.5092 13.262 3.0561 Q13.262 2.4936 12.8401 2.4936 Q12.0901 2.4936 11.6058 3.267 Q11.1214 4.0405 10.887 4.9936 Q10.8558 5.1186 10.7308 5.1186 L10.512 5.1186 Q10.3558 5.1186 10.3558 4.9467 L10.3558 4.8842 Q10.6526 3.7592 11.2854 2.8842 Q11.9183 2.0092 12.887 2.0092 Q13.5589 2.0092 14.0276 2.4545 Q14.4964 2.8999 14.4964 3.5874 Q14.4964 3.9311 14.3401 4.3217 L12.7933 8.3999 Q12.5433 9.0405 12.5433 9.5405 Q12.5433 10.1186 12.9808 10.1186 Q13.7151 10.1186 14.2151 9.3217 Q14.7151 8.5249 14.9183 7.603 Q14.9495 7.4936 15.0589 7.4936 L15.2933 7.4936 Q15.3714 7.4936 15.4183 7.5483 Q15.4651 7.603 15.4651 7.6655 Q15.4651 7.6811 15.4495 7.7124 Q15.1839 8.7905 14.5354 9.7045 Q13.887 10.6186 12.9339 10.6186 Q12.2776 10.6186 11.8011 10.1577 Q11.3245 9.6967 11.3245 9.0405 ZM13.4651 -1.1158 Q13.4651 -1.5064 13.8011 -1.8345 Q14.137 -2.1626 14.5276 -2.1626 Q14.8558 -2.1626 15.0667 -1.9595 Q15.2776 -1.7564 15.2776 -1.4595 Q15.2776 -1.0376 14.9417 -0.7173 Q14.6058 -0.397 14.1839 -0.397 Q13.887 -0.397 13.6761 -0.6001 Q13.4651 -0.8033 13.4651 -1.1158 Z"
         style="stroke:none;" />
    </g>
    <g
       id="g61"
       style="font-size:26.6667px; text-rendering:geometricPrecision; color-rendering:optimizeQuality; image-rendering:optimizeQuality; font-family:'mwa_cmmi10'; color-interpolation:linearRGB;"
       transform="translate(509.5,437.5)">
      <path
         id="path51"
         d="M-13.2336 -9.6782 Q-13.4523 -9.6782 -13.5851 -9.8345 Q-13.7179 -9.9907 -13.7179 -10.2095 Q-13.7179 -10.4126 -13.5851 -10.5767 Q-13.4523 -10.7407 -13.2336 -10.7407 L-3.6711 -10.7407 Q-4.3898 -11.6938 -4.3898 -12.3345 Q-4.3898 -12.5688 -4.2257 -12.7251 Q-4.0617 -12.8813 -3.8429 -12.8813 Q-3.4054 -12.8813 -3.3117 -12.4595 Q-3.0461 -11.2876 -2.0304 -10.6626 Q-1.7648 -10.4907 -1.7648 -10.2095 Q-1.7648 -9.8813 -2.0304 -9.7563 Q-3.5617 -8.9907 -4.4992 -7.7251 Q-4.5929 -7.5376 -4.9054 -7.5376 Q-5.0929 -7.5376 -5.2648 -7.6938 Q-5.4367 -7.8501 -5.4367 -8.0688 Q-5.4367 -8.5688 -4.1398 -9.6782 L-13.2336 -9.6782 Z"
         style="stroke:none;" />
      <path
         id="path53"
         d="M-14.7137 3.353 Q-14.7137 2.7437 -14.5731 2.0171 Q-14.4325 1.2905 -14.284 0.8296 Q-14.1356 0.3687 -13.62 -0.9907 Q-13.1043 -2.3501 -13.0887 -2.4126 Q-12.745 -3.397 -12.745 -4.022 Q-12.745 -4.8345 -13.3387 -4.8345 Q-14.4012 -4.8345 -15.0965 -3.7329 Q-15.7918 -2.6313 -16.12 -1.272 Q-16.1668 -1.1001 -16.3387 -1.1001 L-16.6512 -1.1001 Q-16.8856 -1.1001 -16.8856 -1.3501 L-16.8856 -1.4282 Q-16.4481 -3.0376 -15.5496 -4.2876 Q-14.6512 -5.5376 -13.2762 -5.5376 Q-12.3231 -5.5376 -11.6512 -4.9048 Q-10.9793 -4.272 -10.9793 -3.2876 Q-10.9793 -2.7876 -11.2137 -2.2407 Q-11.745 -0.8657 -12.0418 -0.0376 Q-12.3387 0.7905 -12.5965 1.8062 Q-12.8543 2.8218 -12.8543 3.6968 Q-12.8543 4.7124 -12.3856 5.353 Q-11.9168 5.9937 -10.9325 5.9937 Q-9.0575 5.9937 -7.5575 3.103 Q-7.0887 2.1655 -6.6668 0.8999 Q-6.245 -0.3657 -6.245 -1.147 Q-6.245 -1.9751 -6.5028 -2.4282 Q-6.7606 -2.8813 -7.1825 -3.3735 Q-7.6043 -3.8657 -7.6043 -4.1626 Q-7.6043 -4.6938 -7.1746 -5.1235 Q-6.745 -5.5532 -6.2137 -5.5532 Q-5.5731 -5.5532 -5.284 -4.9595 Q-4.995 -4.3657 -4.995 -3.6157 Q-4.995 -2.7251 -5.2528 -1.4829 Q-5.5106 -0.2407 -5.9637 1.0874 Q-6.4168 2.4155 -6.8075 3.1812 Q-8.5887 6.6968 -10.9637 6.6968 Q-12.6668 6.6968 -13.6903 5.853 Q-14.7137 5.0093 -14.7137 3.353 Z"
         style="stroke:none;" />
      <path
         id="path55"
         d="M-3.7253 10.3999 L-3.7253 9.8842 Q-3.7253 9.8374 -3.694 9.7905 L-0.7409 6.5249 Q-0.069 5.7905 0.3451 5.3061 Q0.7591 4.8217 1.1654 4.1811 Q1.5716 3.5405 1.806 2.8764 Q2.0404 2.2124 2.0404 1.4624 Q2.0404 0.6811 1.7591 -0.0298 Q1.4779 -0.7408 0.9076 -1.1626 Q0.3372 -1.5845 -0.4753 -1.5845 Q-1.3034 -1.5845 -1.9596 -1.0923 Q-2.6159 -0.6001 -2.8815 0.1967 Q-2.819 0.1811 -2.6784 0.1811 Q-2.2565 0.1811 -1.9518 0.4624 Q-1.6471 0.7436 -1.6471 1.2124 Q-1.6471 1.6342 -1.9518 1.9389 Q-2.2565 2.2436 -2.6784 2.2436 Q-3.1315 2.2436 -3.4284 1.9311 Q-3.7253 1.6186 -3.7253 1.2124 Q-3.7253 0.4936 -3.4596 -0.1314 Q-3.194 -0.7564 -2.6862 -1.2486 Q-2.1784 -1.7408 -1.5456 -1.9986 Q-0.9128 -2.2564 -0.194 -2.2564 Q0.8841 -2.2564 1.8216 -1.7955 Q2.7591 -1.3345 3.306 -0.4986 Q3.8529 0.3374 3.8529 1.4624 Q3.8529 2.2905 3.4935 3.0327 Q3.1341 3.7749 2.5716 4.3842 Q2.0091 4.9936 1.1263 5.7592 Q0.2435 6.5249 -0.0378 6.7905 L-2.194 8.853 L-0.3659 8.853 Q0.9779 8.853 1.8841 8.8295 Q2.7904 8.8061 2.8529 8.7592 Q3.0716 8.5249 3.306 7.0092 L3.8529 7.0092 L3.3216 10.3999 L-3.7253 10.3999 Z"
         style="stroke:none;" />
      <path
         id="path57"
         d="M6.5456 13.8217 Q6.5456 13.7436 6.6081 13.6655 Q7.2956 13.0092 7.6784 12.142 Q8.0612 11.2749 8.0612 10.3217 L8.0612 10.0874 Q7.7487 10.3999 7.2956 10.3999 Q6.8581 10.3999 6.5534 10.0952 Q6.2487 9.7905 6.2487 9.353 Q6.2487 8.8999 6.5534 8.603 Q6.8581 8.3061 7.2956 8.3061 Q7.9831 8.3061 8.2643 8.9389 Q8.5456 9.5717 8.5456 10.3217 Q8.5456 11.3842 8.1237 12.3374 Q7.7018 13.2905 6.9362 14.0405 Q6.8581 14.0874 6.8112 14.0874 Q6.7174 14.0874 6.6315 14.0014 Q6.5456 13.9155 6.5456 13.8217 Z"
         style="stroke:none;" />
      <path
         id="path59"
         d="M11.3245 9.0405 Q11.3245 8.6811 11.4808 8.2905 L13.012 4.1967 Q13.262 3.5092 13.262 3.0561 Q13.262 2.4936 12.8401 2.4936 Q12.0901 2.4936 11.6058 3.267 Q11.1214 4.0405 10.887 4.9936 Q10.8558 5.1186 10.7308 5.1186 L10.512 5.1186 Q10.3558 5.1186 10.3558 4.9467 L10.3558 4.8842 Q10.6526 3.7592 11.2854 2.8842 Q11.9183 2.0092 12.887 2.0092 Q13.5589 2.0092 14.0276 2.4545 Q14.4964 2.8999 14.4964 3.5874 Q14.4964 3.9311 14.3401 4.3217 L12.7933 8.3999 Q12.5433 9.0405 12.5433 9.5405 Q12.5433 10.1186 12.9808 10.1186 Q13.7151 10.1186 14.2151 9.3217 Q14.7151 8.5249 14.9183 7.603 Q14.9495 7.4936 15.0589 7.4936 L15.2933 7.4936 Q15.3714 7.4936 15.4183 7.5483 Q15.4651 7.603 15.4651 7.6655 Q15.4651 7.6811 15.4495 7.7124 Q15.1839 8.7905 14.5354 9.7045 Q13.887 10.6186 12.9339 10.6186 Q12.2776 10.6186 11.8011 10.1577 Q11.3245 9.6967 11.3245 9.0405 ZM13.4651 -1.1158 Q13.4651 -1.5064 13.8011 -1.8345 Q14.137 -2.1626 14.5276 -2.1626 Q14.8558 -2.1626 15.0667 -1.9595 Q15.2776 -1.7564 15.2776 -1.4595 Q15.2776 -1.0376 14.9417 -0.7173 Q14.6058 -0.397 14.1839 -0.397 Q13.887 -0.397 13.6761 -0.6001 Q13.4651 -0.8033 13.4651 -1.1158 Z"
         style="stroke:none;" />
    </g>
  </g>
</svg>
